<?xml version="1.0" encoding="UTF-8" standalone="no"?>
<svg
   id="Ebene_3"
   data-name="Ebene 3"
   viewBox="0 0 400.00001 111.63189"
   version="1.1"
   width="400"
   height="111.63189"
   xmlns="http://www.w3.org/2000/svg"
   xmlns:svg="http://www.w3.org/2000/svg">
  <defs
     id="defs229">
    <style
       id="style224">.cls-1,.cls-4,.cls-5,.cls-6,.cls-7{fill:none;}.cls-2{clip-path:url(#clip-path);}.cls-3{fill:#1FA774;}.cls-4,.cls-5,.cls-6,.cls-7{stroke:#1FA774;stroke-linejoin:round;}.cls-4,.cls-6,.cls-7{stroke-linecap:round;}.cls-4{stroke-width:0.28px;}.cls-5,.cls-6{stroke-width:1.121px;}.cls-7{stroke-width:0.561px;}</style>
    <clipPath
       id="clip-path">
      <rect
         class="cls-1"
         x="-7.1392102"
         y="18.980749"
         width="174.49699"
         height="79.752998"
         id="rect226" />
    </clipPath>
  </defs>
  <g
     class="cls-2"
     clip-path="url(#clip-path)"
     id="g235"
     transform="matrix(1.9286909,0,0,1.9131133,-74.160879,-27.784136)">
    <path
       class="cls-3"
       d="m 75.2447,35.96915 c 0,0 -13.657,-0.636 -17.76,10.491 0,0 -3.986,12.109 9.395,18.799 a 31.43565,31.43565 0 0 0 27.091,-0.636 16.9908,16.9908 0 0 0 6.706,-6.401 15.09926,15.09926 0 0 0 -0.666,-16.328 27.835,27.835 0 0 0 -6.358,-5.723 53.35187,53.35187 0 0 0 -5.15,-3.179 c -2.695,-1.452 -5.927,-2.767 -7.377,-4.175 0,0 -3.919,-3.077 -3.497,-9.697 0,0 -2.891,7.037 2.832,12.283 a 26.68,26.68 0 0 0 5.976,4.037 c 0.16,0.083 1.876,1.081 3.274,2.003 3.527,2.324 8.393,5.404 8.423,11.719 a 12.409,12.409 0 0 1 -2.573,7.991 16.0756,16.0756 0 0 1 -7.185,5.721 c 0,0 -8.71,3.561 -17.264,0.116 0,0 -10.774,-4.248 -9.63,-15.248 a 9.95713,9.95713 0 0 1 2.035,-4.808 19.07247,19.07247 0 0 1 11.728,-6.965"
       id="path231" />
    <path
       class="cls-4"
       d="m 75.2447,35.96915 c 0,0 -13.657,-0.636 -17.76,10.491 0,0 -3.986,12.109 9.395,18.799 a 31.43565,31.43565 0 0 0 27.091,-0.636 16.9908,16.9908 0 0 0 6.706,-6.401 15.09926,15.09926 0 0 0 -0.666,-16.328 27.835,27.835 0 0 0 -6.358,-5.723 53.35187,53.35187 0 0 0 -5.15,-3.179 c -2.695,-1.452 -5.927,-2.767 -7.377,-4.175 0,0 -3.919,-3.077 -3.497,-9.697 0,0 -2.891,7.037 2.832,12.283 a 26.68,26.68 0 0 0 5.976,4.037 c 0.16,0.083 1.876,1.081 3.274,2.003 3.527,2.324 8.393,5.404 8.423,11.719 a 12.409,12.409 0 0 1 -2.573,7.991 16.0756,16.0756 0 0 1 -7.185,5.721 c 0,0 -8.71,3.561 -17.264,0.116 0,0 -10.774,-4.248 -9.63,-15.248 a 9.95713,9.95713 0 0 1 2.035,-4.808 19.07247,19.07247 0 0 1 11.728,-6.965 z"
       id="path233" />
  </g>
  <rect
     class="cls-3"
     x="85.245018"
     y="60.306595"
     width="17.074699"
     height="3.2618582"
     id="rect237"
     style="stroke-width:1.92089" />
  <rect
     class="cls-5"
     x="85.245018"
     y="60.306595"
     width="17.074699"
     height="3.2618582"
     id="rect239" />
  <g
     class="cls-2"
     clip-path="url(#clip-path)"
     id="g253"
     transform="matrix(1.9286909,0,0,1.9131133,-74.160879,-27.784136)">
    <path
       class="cls-3"
       d="m 57.662,36.29815 c 0,0 -9.392,5.143 -9.348,15.292 a 17.195,17.195 0 0 0 10.892,15.866 c 0,0 -9.209,-6.303 -8.83,-16.655 0,0 -0.01,-7.663 7.286,-14.503"
       id="path241" />
    <path
       class="cls-6"
       d="m 57.662,36.29815 c 0,0 -9.392,5.143 -9.348,15.292 a 17.195,17.195 0 0 0 10.892,15.866 c 0,0 -9.209,-6.303 -8.83,-16.655 0,0 -0.01,-7.663 7.286,-14.503 z"
       id="path243" />
    <path
       class="cls-3"
       d="m 102.44509,36.268 c 0,0 9.254,5.387 8.944,15.531 a 17.19633,17.19633 0 0 1 -11.303,15.576 c 0,0 9.371,-6.06 9.263,-16.419 0,0 0.21,-7.659 -6.904,-14.688"
       id="path245" />
    <path
       class="cls-6"
       d="m 102.44509,36.268 c 0,0 9.254,5.387 8.944,15.531 a 17.19633,17.19633 0 0 1 -11.303,15.576 c 0,0 9.371,-6.06 9.263,-16.419 0,0 0.21,-7.659 -6.904,-14.688 z"
       id="path247" />
    <path
       class="cls-3"
       d="m 79.39629,57.22305 c 0,0 -5.86,-0.459 -9.202,-4.312 0,0 -2.224,-2.092 -2.731,-7.209 -0.092,-0.923 -2.647,5.589 2.847,10.522 a 13.5116,13.5116 0 0 0 9.074,3.366 c 0,0 0,-0.233 0.012,-2.367"
       id="path249" />
    <path
       class="cls-7"
       d="m 79.39629,57.22305 c 0,0 -5.86,-0.459 -9.202,-4.312 0,0 -2.224,-2.092 -2.731,-7.209 -0.092,-0.923 -2.647,5.589 2.847,10.522 a 13.5116,13.5116 0 0 0 9.074,3.366 c 0,0 0,-0.233 0.012,-2.367 z"
       id="path251" />
  </g>
  <path
     class="cls-1 cls-3"
     d="m 163.70112,86.526172 q -2.304,0 -4.176,-0.384 -1.824,-0.336 -3.168,-1.056 -1.296,-0.672 -2.016,-1.728 -0.672,-1.056 -0.672,-2.496 0,-1.344 0.576,-2.4 0.576,-1.056 1.488,-1.728 0.96,-0.72 2.064,-1.056 l 1.44,0.864 q -0.864,0.528 -1.392,1.056 -0.528,0.528 -0.768,1.2 -0.24,0.72 -0.24,1.68 0,0.816 0.48,1.44 0.48,0.672 1.344,1.104 0.912,0.432 2.16,0.672 1.296,0.24 2.928,0.24 2.208,0 3.552,-0.48 1.392,-0.432 2.064,-1.248 0.672,-0.768 0.672,-1.776 0,-1.056 -0.384,-1.728 -0.384,-0.672 -1.584,-1.008 -1.2,-0.336 -3.648,-0.336 -1.68,0 -3.072,-0.144 -1.392,-0.144 -2.496,-0.48 -1.104,-0.336 -1.872,-0.816 -0.72,-0.528 -1.104,-1.248 -0.384,-0.72 -0.384,-1.68 0,-1.248 0.672,-2.4 0.72,-1.152 1.92,-2.208 l 1.632,1.296 q -0.48,0.528 -0.768,0.96 -0.288,0.384 -0.432,0.768 -0.096,0.336 -0.096,0.768 0,0.768 0.576,1.248 0.624,0.48 2.112,0.72 1.488,0.192 4.032,0.192 2.544,0 4.128,0.432 1.584,0.384 2.4,1.152 0.864,0.768 1.2,1.776 0.336,1.008 0.336,2.208 0,1.296 -0.528,2.448 -0.48,1.2 -1.584,2.112 -1.104,0.96 -2.928,1.488 -1.824,0.576 -4.464,0.576 z m -1.008,-15.696 q -2.352,0 -4.08,-1.008 -1.728,-1.056 -2.688,-2.784 -0.912,-1.776 -0.912,-3.888 0,-2.112 0.912,-3.84 0.96,-1.728 2.688,-2.736 1.728,-1.056 4.08,-1.056 2.4,0 4.08,1.056 1.728,1.008 2.64,2.736 0.96,1.728 0.96,3.84 0,2.112 -0.96,3.888 -0.912,1.728 -2.64,2.784 -1.68,1.008 -4.08,1.008 z m 0,-2.88 q 1.392,0 2.448,-0.624 1.104,-0.672 1.728,-1.776 0.624,-1.104 0.624,-2.4 0,-1.344 -0.624,-2.4 -0.624,-1.104 -1.728,-1.728 -1.056,-0.672 -2.448,-0.672 -1.392,0 -2.496,0.672 -1.056,0.624 -1.68,1.728 -0.624,1.056 -0.624,2.4 0,1.296 0.624,2.4 0.624,1.104 1.68,1.776 1.104,0.624 2.496,0.624 z m 6.384,-8.064 -1.344,-1.584 q 1.392,-1.392 2.88,-2.016 1.536,-0.672 3.6,-0.528 l 0.432,2.832 q -1.584,-0.144 -2.976,0.096 -1.392,0.24 -2.592,1.2 z m 16.896,18.912 q -3.744,0 -5.76,-1.68 -2.016,-1.728 -2.016,-4.368 0,-1.776 0.864,-3.168 0.864,-1.44 2.352,-2.4 1.536,-1.008 3.552,-1.536 2.016,-0.528 4.272,-0.528 0.816,0 1.632,0.048 0.864,0 1.776,0.096 0.96,0.048 1.968,0.192 l 0.096,2.64 q -0.864,-0.144 -1.776,-0.192 -0.864,-0.096 -1.728,-0.144 -0.864,-0.048 -1.68,-0.048 -1.728,0 -3.168,0.288 -1.44,0.288 -2.496,0.864 -1.056,0.576 -1.632,1.488 -0.576,0.912 -0.576,2.208 0,1.008 0.336,1.728 0.384,0.672 1.008,1.104 0.624,0.384 1.44,0.576 0.864,0.192 1.872,0.192 1.872,0 3.312,-0.576 1.488,-0.624 2.496,-1.776 1.056,-1.152 1.584,-2.832 0.528,-1.68 0.528,-3.84 0,-3.264 -0.768,-5.088 -0.768,-1.824 -2.304,-2.592 -1.488,-0.768 -3.84,-0.768 -1.584,0 -3.12,0.624 -1.536,0.576 -2.784,1.824 l -1.68,-2.208 q 1.536,-1.536 3.552,-2.304 2.016,-0.768 4.272,-0.768 2.16,0 3.936,0.528 1.776,0.528 3.024,1.776 1.296,1.2 1.968,3.264 0.72,2.064 0.72,5.184 v 11.664 h -3.744 v -3.36 q -0.624,1.2 -1.536,1.968 -0.864,0.768 -1.872,1.2 -1.008,0.384 -2.064,0.528 -1.056,0.192 -2.016,0.192 z m 19.584,-22.464 h 3.6 l -0.144,6.384 -0.432,-0.72 q 0.288,-1.488 1.008,-2.64 0.72,-1.152 1.728,-1.92 1.008,-0.816 2.208,-1.2 1.2,-0.432 2.496,-0.432 1.728,0 3.168,0.624 1.488,0.576 2.64,1.776 l -1.536,2.688 -0.192,0.432 -0.336,-0.192 q -0.096,-0.384 -0.288,-0.72 -0.192,-0.336 -0.816,-0.816 -0.768,-0.48 -1.44,-0.624 -0.624,-0.192 -1.44,-0.192 -1.2,0 -2.4,0.48 -1.2,0.432 -2.208,1.392 -0.96,0.96 -1.536,2.448 -0.576,1.488 -0.576,3.552 v 11.664 h -3.504 z m 22.08,21.936 v -2.784 h 6.48 v -26.352 h -6.192 v -2.784 h 9.696 v 29.136 h 6.432 v 2.784 z m 25.008,0 v -2.784 h 5.616 v -16.368 h -5.328 v -2.784 h 8.784 v 19.152 h 5.136 v 2.784 z m 7.152,-26.544 q -1.008,0 -1.728,-0.72 -0.72,-0.72 -0.72,-1.728 0,-1.056 0.672,-1.776 0.72,-0.72 1.776,-0.72 1.008,0 1.728,0.768 0.768,0.72 0.768,1.728 0,1.008 -0.768,1.728 -0.72,0.72 -1.728,0.72 z m 25.728,27.072 q -2.4,0 -4.416,-0.864 -2.016,-0.864 -3.504,-2.4 -1.44,-1.536 -2.256,-3.6 -0.816,-2.112 -0.816,-4.608 0,-2.448 0.816,-4.512 0.816,-2.112 2.256,-3.648 1.488,-1.536 3.504,-2.4 2.016,-0.864 4.368,-0.864 2.688,0 4.8,1.104 2.16,1.056 3.504,2.976 l -2.16,2.112 -0.336,0.336 -0.24,-0.24 q 0,-0.384 -0.192,-0.72 -0.144,-0.336 -0.72,-0.912 -1.056,-0.96 -2.256,-1.344 -1.2,-0.384 -2.784,-0.384 -1.392,0 -2.64,0.576 -1.248,0.576 -2.256,1.68 -0.96,1.056 -1.536,2.592 -0.576,1.536 -0.576,3.408 0,1.872 0.576,3.456 0.576,1.536 1.584,2.688 1.008,1.152 2.4,1.824 1.44,0.624 3.072,0.624 1.104,0 2.112,-0.288 1.008,-0.336 1.92,-0.912 0.912,-0.624 1.68,-1.488 l 2.016,2.352 q -1.632,1.728 -3.648,2.592 -1.968,0.864 -4.272,0.864 z m 15.648,-14.016 v -3.216 h 13.44 v 3.216 z m 22.176,-18.432 h 3.312 0.48 v 0.336 q -0.288,0.288 -0.384,0.624 -0.048,0.336 -0.048,1.152 v 11.76 q 0.864,-1.344 2.016,-2.304 1.2,-1.008 2.496,-1.536 1.344,-0.576 2.688,-0.576 1.968,0 3.456,0.912 1.536,0.912 2.352,2.928 0.864,2.016 0.864,5.328 v 13.296 h -3.36 v -13.2 q 0,-2.304 -0.528,-3.648 -0.528,-1.392 -1.44,-1.968 -0.912,-0.624 -2.064,-0.624 -0.864,0 -1.776,0.288 -0.912,0.288 -1.776,0.864 -0.816,0.576 -1.488,1.44 -0.672,0.816 -1.056,1.872 -0.384,1.056 -0.384,2.352 v 12.624 h -3.36 z m 31.104,32.448 q -1.296,0 -2.448,-0.384 -1.152,-0.384 -2.112,-1.152 -0.912,-0.816 -1.584,-2.016 -0.672,-1.2 -1.056,-2.88 -0.336,-1.68 -0.336,-3.792 l 0.048,-12.24 h 3.36 v 12.24 q 0,2.064 0.384,3.504 0.384,1.44 1.056,2.304 0.72,0.864 1.632,1.248 0.912,0.384 1.92,0.384 1.152,0 2.208,-0.432 1.056,-0.48 1.872,-1.392 0.864,-0.912 1.344,-2.352 0.48,-1.44 0.48,-3.408 v -12.096 h 3.36 v 18.528 q 0,0.864 0.048,1.728 0.096,0.816 0.432,1.68 h -3.312 q -0.24,-0.576 -0.336,-1.104 -0.096,-0.576 -0.144,-1.152 0,-0.576 0,-1.104 -0.528,0.912 -1.248,1.632 -0.72,0.72 -1.632,1.248 -0.864,0.48 -1.872,0.72 -0.96,0.288 -2.064,0.288 z m 26.16,0 q -1.344,0 -2.544,-0.432 -1.2,-0.384 -2.208,-1.152 -0.96,-0.768 -1.728,-1.824 l -1.2,2.88 h -2.208 v -31.92 h 3.456 0.48 v 0.336 q -0.288,0.288 -0.384,0.624 -0.048,0.336 -0.048,1.152 v 11.232 q 0.528,-0.864 1.248,-1.584 0.72,-0.72 1.584,-1.248 0.864,-0.528 1.824,-0.768 0.96,-0.288 1.872,-0.288 2.016,0 3.648,0.72 1.68,0.672 2.88,2.112 1.2,1.392 1.824,3.504 0.672,2.112 0.672,4.944 0,2.928 -0.768,5.136 -0.768,2.208 -2.112,3.696 -1.296,1.44 -2.928,2.16 -1.632,0.72 -3.36,0.72 z m -0.432,-3.072 q 1.152,0 2.208,-0.432 1.104,-0.432 1.968,-1.392 0.864,-1.008 1.344,-2.64 0.528,-1.632 0.528,-3.984 0,-2.16 -0.432,-3.744 -0.432,-1.632 -1.248,-2.688 -0.768,-1.056 -1.872,-1.536 -1.104,-0.528 -2.4,-0.528 -1.776,0 -3.168,1.104 -1.344,1.056 -2.112,3.024 -0.768,1.92 -0.768,4.464 0,1.872 0.336,3.408 0.336,1.536 1.008,2.64 0.72,1.104 1.824,1.728 1.152,0.576 2.784,0.576 z"
     id="text1"
     aria-label="garlic-hub" />
</svg>
