<?xml version="1.0" encoding="UTF-8" standalone="no"?>
<svg
   id="Ebene_3"
   data-name="Ebene 3"
   viewBox="0 0 159.32662 111.63189"
   version="1.1"
   sodipodi:docname="Garlic_hub_zentriert.svg"
   inkscape:version="1.2 (dc2aeda, 2022-05-15)"
   xmlns:inkscape="http://www.inkscape.org/namespaces/inkscape"
   xmlns:sodipodi="http://sodipodi.sourceforge.net/DTD/sodipodi-0.dtd"
   xmlns="http://www.w3.org/2000/svg"
   xmlns:svg="http://www.w3.org/2000/svg">
  <sodipodi:namedview
     id="namedview284"
     pagecolor="#ffffff"
     bordercolor="#000000"
     borderopacity="0.25"
     showgrid="false" />
  <defs
     id="defs229">
    <style
       id="style224">.cls-1,.cls-4,.cls-5,.cls-6,.cls-7{fill:none;}.cls-2{clip-path:url(#clip-path);}.cls-3{fill:#1FA774;}.cls-4,.cls-5,.cls-6,.cls-7{stroke:#1FA774;stroke-linejoin:round;}.cls-4,.cls-6,.cls-7{stroke-linecap:round;}.cls-4{stroke-width:0.28px;}.cls-5,.cls-6{stroke-width:1.121px;}.cls-7{stroke-width:0.561px;}</style>
    <clipPath
       id="clip-path">
      <rect
         class="cls-1"
         x="-7.13921"
         y="18.98075"
         width="174.49699"
         height="79.753"
         id="rect226" />
    </clipPath>
  </defs>
  <g
     class="cls-2"
     clip-path="url(#clip-path)"
     id="g235"
     transform="matrix(1.9286909,0,0,1.9131133,-74.160879,-27.784136)">
    <path
       class="cls-3"
       d="m 75.2447,35.96915 c 0,0 -13.657,-0.636 -17.76,10.491 0,0 -3.986,12.109 9.395,18.799 a 31.43565,31.43565 0 0 0 27.091,-0.636 16.9908,16.9908 0 0 0 6.706,-6.401 15.09926,15.09926 0 0 0 -0.666,-16.328 27.835,27.835 0 0 0 -6.358,-5.723 53.35187,53.35187 0 0 0 -5.15,-3.179 c -2.695,-1.452 -5.927,-2.767 -7.377,-4.175 0,0 -3.919,-3.077 -3.497,-9.697 0,0 -2.891,7.037 2.832,12.283 a 26.68,26.68 0 0 0 5.976,4.037 c 0.16,0.083 1.876,1.081 3.274,2.003 3.527,2.324 8.393,5.404 8.423,11.719 a 12.409,12.409 0 0 1 -2.573,7.991 16.0756,16.0756 0 0 1 -7.185,5.721 c 0,0 -8.71,3.561 -17.264,0.116 0,0 -10.774,-4.248 -9.63,-15.248 a 9.95713,9.95713 0 0 1 2.035,-4.808 19.07247,19.07247 0 0 1 11.728,-6.965"
       id="path231" />
    <path
       class="cls-4"
       d="m 75.2447,35.96915 c 0,0 -13.657,-0.636 -17.76,10.491 0,0 -3.986,12.109 9.395,18.799 a 31.43565,31.43565 0 0 0 27.091,-0.636 16.9908,16.9908 0 0 0 6.706,-6.401 15.09926,15.09926 0 0 0 -0.666,-16.328 27.835,27.835 0 0 0 -6.358,-5.723 53.35187,53.35187 0 0 0 -5.15,-3.179 c -2.695,-1.452 -5.927,-2.767 -7.377,-4.175 0,0 -3.919,-3.077 -3.497,-9.697 0,0 -2.891,7.037 2.832,12.283 a 26.68,26.68 0 0 0 5.976,4.037 c 0.16,0.083 1.876,1.081 3.274,2.003 3.527,2.324 8.393,5.404 8.423,11.719 a 12.409,12.409 0 0 1 -2.573,7.991 16.0756,16.0756 0 0 1 -7.185,5.721 c 0,0 -8.71,3.561 -17.264,0.116 0,0 -10.774,-4.248 -9.63,-15.248 a 9.95713,9.95713 0 0 1 2.035,-4.808 19.07247,19.07247 0 0 1 11.728,-6.965 z"
       id="path233" />
  </g>
  <rect
     class="cls-3"
     x="85.245018"
     y="60.306595"
     width="17.074699"
     height="3.2618582"
     id="rect237"
     style="stroke-width:1.92089" />
  <rect
     class="cls-5"
     x="85.245018"
     y="60.306595"
     width="17.074699"
     height="3.2618582"
     id="rect239" />
  <g
     class="cls-2"
     clip-path="url(#clip-path)"
     id="g253"
     transform="matrix(1.9286909,0,0,1.9131133,-74.160879,-27.784136)">
    <path
       class="cls-3"
       d="m 57.662,36.29815 c 0,0 -9.392,5.143 -9.348,15.292 a 17.195,17.195 0 0 0 10.892,15.866 c 0,0 -9.209,-6.303 -8.83,-16.655 0,0 -0.01,-7.663 7.286,-14.503"
       id="path241" />
    <path
       class="cls-6"
       d="m 57.662,36.29815 c 0,0 -9.392,5.143 -9.348,15.292 a 17.195,17.195 0 0 0 10.892,15.866 c 0,0 -9.209,-6.303 -8.83,-16.655 0,0 -0.01,-7.663 7.286,-14.503 z"
       id="path243" />
    <path
       class="cls-3"
       d="m 102.44509,36.268 c 0,0 9.254,5.387 8.944,15.531 a 17.19633,17.19633 0 0 1 -11.303,15.576 c 0,0 9.371,-6.06 9.263,-16.419 0,0 0.21,-7.659 -6.904,-14.688"
       id="path245" />
    <path
       class="cls-6"
       d="m 102.44509,36.268 c 0,0 9.254,5.387 8.944,15.531 a 17.19633,17.19633 0 0 1 -11.303,15.576 c 0,0 9.371,-6.06 9.263,-16.419 0,0 0.21,-7.659 -6.904,-14.688 z"
       id="path247" />
    <path
       class="cls-3"
       d="m 79.39629,57.22305 c 0,0 -5.86,-0.459 -9.202,-4.312 0,0 -2.224,-2.092 -2.731,-7.209 -0.092,-0.923 -2.647,5.589 2.847,10.522 a 13.5116,13.5116 0 0 0 9.074,3.366 c 0,0 0,-0.233 0.012,-2.367"
       id="path249" />
    <path
       class="cls-7"
       d="m 79.39629,57.22305 c 0,0 -5.86,-0.459 -9.202,-4.312 0,0 -2.224,-2.092 -2.731,-7.209 -0.092,-0.923 -2.647,5.589 2.847,10.522 a 13.5116,13.5116 0 0 0 9.074,3.366 c 0,0 0,-0.233 0.012,-2.367 z"
       id="path251" />
  </g>
</svg>
