<?xml version="1.0" encoding="UTF-8" standalone="no"?>
<svg
   id="Ebene_3"
   data-name="Ebene 3"
   viewBox="0 0 151.49401 111.632"
   version="1.1"
   width="151.494"
   height="111.632"
   xmlns="http://www.w3.org/2000/svg"
   xmlns:svg="http://www.w3.org/2000/svg">
  <defs
     id="defs229">
    <style
       id="style224">.cls-1,.cls-4,.cls-5,.cls-6,.cls-7{fill:none;}.cls-2{clip-path:url(#clip-path);}.cls-3{fill:#03393a;}.cls-4,.cls-5,.cls-6,.cls-7{stroke:#03393a;stroke-linejoin:round;}.cls-4,.cls-6,.cls-7{stroke-linecap:round;}.cls-4{stroke-width:0.28px;}.cls-5,.cls-6{stroke-width:1.121px;}.cls-7{stroke-width:0.561px;}</style>
    <clipPath
       id="clip-path">
      <rect
         class="cls-1"
         x="-7.1392102"
         y="18.980749"
         width="174.49699"
         height="79.752998"
         id="rect226" />
    </clipPath>
  </defs>
  <g
     class="cls-2"
     clip-path="url(#clip-path)"
     id="g235"
     transform="matrix(1.266996,0,0,1.3002467,-26.630033,-17.731601)"
     style="stroke-width:1.49658">
    <path
       class="cls-3"
       d="m 75.2447,35.96915 c 0,0 -13.657,-0.636 -17.76,10.491 0,0 -3.986,12.109 9.395,18.799 a 31.43565,31.43565 0 0 0 27.091,-0.636 16.9908,16.9908 0 0 0 6.706,-6.401 15.09926,15.09926 0 0 0 -0.666,-16.328 27.835,27.835 0 0 0 -6.358,-5.723 53.35187,53.35187 0 0 0 -5.15,-3.179 c -2.695,-1.452 -5.927,-2.767 -7.377,-4.175 0,0 -3.919,-3.077 -3.497,-9.697 0,0 -2.891,7.037 2.832,12.283 a 26.68,26.68 0 0 0 5.976,4.037 c 0.16,0.083 1.876,1.081 3.274,2.003 3.527,2.324 8.393,5.404 8.423,11.719 a 12.409,12.409 0 0 1 -2.573,7.991 16.0756,16.0756 0 0 1 -7.185,5.721 c 0,0 -8.71,3.561 -17.264,0.116 0,0 -10.774,-4.248 -9.63,-15.248 a 9.95713,9.95713 0 0 1 2.035,-4.808 19.07247,19.07247 0 0 1 11.728,-6.965"
       id="path231"
       style="stroke-width:1.49658" />
    <path
       class="cls-4"
       d="m 75.2447,35.96915 c 0,0 -13.657,-0.636 -17.76,10.491 0,0 -3.986,12.109 9.395,18.799 a 31.43565,31.43565 0 0 0 27.091,-0.636 16.9908,16.9908 0 0 0 6.706,-6.401 15.09926,15.09926 0 0 0 -0.666,-16.328 27.835,27.835 0 0 0 -6.358,-5.723 53.35187,53.35187 0 0 0 -5.15,-3.179 c -2.695,-1.452 -5.927,-2.767 -7.377,-4.175 0,0 -3.919,-3.077 -3.497,-9.697 0,0 -2.891,7.037 2.832,12.283 a 26.68,26.68 0 0 0 5.976,4.037 c 0.16,0.083 1.876,1.081 3.274,2.003 3.527,2.324 8.393,5.404 8.423,11.719 a 12.409,12.409 0 0 1 -2.573,7.991 16.0756,16.0756 0 0 1 -7.185,5.721 c 0,0 -8.71,3.561 -17.264,0.116 0,0 -10.774,-4.248 -9.63,-15.248 a 9.95713,9.95713 0 0 1 2.035,-4.808 19.07247,19.07247 0 0 1 11.728,-6.965 z"
       id="path233" />
  </g>
  <rect
     class="cls-3"
     x="78.086922"
     y="42.139229"
     width="11.216715"
     height="2.2169206"
     id="rect237"
     style="stroke-width:1.92089" />
  <rect
     class="cls-5"
     x="78.086922"
     y="42.139229"
     width="11.216715"
     height="2.2169206"
     id="rect239" />
  <g
     class="cls-2"
     clip-path="url(#clip-path)"
     id="g253"
     transform="matrix(1.266996,0,0,1.3002467,-26.630033,-17.731601)"
     style="stroke-width:1.49658">
    <path
       class="cls-3"
       d="m 57.662,36.29815 c 0,0 -9.392,5.143 -9.348,15.292 a 17.195,17.195 0 0 0 10.892,15.866 c 0,0 -9.209,-6.303 -8.83,-16.655 0,0 -0.01,-7.663 7.286,-14.503"
       id="path241"
       style="stroke-width:1.49658" />
    <path
       class="cls-6"
       d="m 57.662,36.29815 c 0,0 -9.392,5.143 -9.348,15.292 a 17.195,17.195 0 0 0 10.892,15.866 c 0,0 -9.209,-6.303 -8.83,-16.655 0,0 -0.01,-7.663 7.286,-14.503 z"
       id="path243" />
    <path
       class="cls-3"
       d="m 102.44509,36.268 c 0,0 9.254,5.387 8.944,15.531 a 17.19633,17.19633 0 0 1 -11.303,15.576 c 0,0 9.371,-6.06 9.263,-16.419 0,0 0.21,-7.659 -6.904,-14.688"
       id="path245"
       style="stroke-width:1.49658" />
    <path
       class="cls-6"
       d="m 102.44509,36.268 c 0,0 9.254,5.387 8.944,15.531 a 17.19633,17.19633 0 0 1 -11.303,15.576 c 0,0 9.371,-6.06 9.263,-16.419 0,0 0.21,-7.659 -6.904,-14.688 z"
       id="path247" />
    <path
       class="cls-3"
       d="m 79.39629,57.22305 c 0,0 -5.86,-0.459 -9.202,-4.312 0,0 -2.224,-2.092 -2.731,-7.209 -0.092,-0.923 -2.647,5.589 2.847,10.522 a 13.5116,13.5116 0 0 0 9.074,3.366 c 0,0 0,-0.233 0.012,-2.367"
       id="path249"
       style="stroke-width:1.49658" />
    <path
       class="cls-7"
       d="m 79.39629,57.22305 c 0,0 -5.86,-0.459 -9.202,-4.312 0,0 -2.224,-2.092 -2.731,-7.209 -0.092,-0.923 -2.647,5.589 2.847,10.522 a 13.5116,13.5116 0 0 0 9.074,3.366 c 0,0 0,-0.233 0.012,-2.367 z"
       id="path251" />
  </g>
  <path
     class="cls-1 cls-3"
     d="m 16.230761,107.1716 q -1.274391,0 -2.309834,-0.21239 -1.008894,-0.18585 -1.752289,-0.5841 -0.716845,-0.3717 -1.115093,-0.95579 -0.371697,-0.5841 -0.371697,-1.3806 0,-0.74339 0.318598,-1.32749 0.318598,-0.58409 0.823044,-0.95579 0.530997,-0.39825 1.141643,-0.5841 l 0.796495,0.4779 q -0.477897,0.29205 -0.769945,0.5841 -0.292048,0.29204 -0.424798,0.66374 -0.132749,0.39825 -0.132749,0.92925 0,0.45134 0.265499,0.79649 0.265498,0.3717 0.743395,0.61065 0.504446,0.23895 1.194742,0.37169 0.716845,0.13275 1.619539,0.13275 1.221292,0 1.964687,-0.26549 0.769945,-0.23895 1.141643,-0.6903 0.371697,-0.4248 0.371697,-0.98234 0,-0.5841 -0.212398,-0.9558 -0.212399,-0.37169 -0.876144,-0.55754 -0.663746,-0.18585 -2.017787,-0.18585 -0.929244,0 -1.699189,-0.0797 -0.769945,-0.0797 -1.380591,-0.2655 -0.610646,-0.18585 -1.035443,-0.45135 -0.398248,-0.29205 -0.610646,-0.69029 -0.212399,-0.39825 -0.212399,-0.92925 0,-0.69029 0.371698,-1.32749 0.398247,-0.63719 1.061993,-1.22129 l 0.902694,0.71685 q -0.265498,0.29204 -0.424797,0.53099 -0.159299,0.2124 -0.238949,0.4248 -0.0531,0.18585 -0.0531,0.4248 0,0.42479 0.318597,0.69029 0.345148,0.2655 1.168193,0.39825 0.823044,0.1062 2.230185,0.1062 1.407141,0 2.283285,0.23895 0.876145,0.2124 1.327492,0.63719 0.477896,0.4248 0.663745,0.98235 0.185849,0.55754 0.185849,1.22129 0,0.71684 -0.292048,1.35404 -0.265498,0.66375 -0.876144,1.16819 -0.610646,0.531 -1.61954,0.82305 -1.008893,0.31859 -2.469134,0.31859 z m -0.557546,-8.68179 q -1.300941,0 -2.256735,-0.55755 -0.955794,-0.58409 -1.48679,-1.53989 -0.504447,-0.98234 -0.504447,-2.15053 0,-1.16819 0.504447,-2.12399 0.530996,-0.95579 1.48679,-1.51334 0.955794,-0.58409 2.256735,-0.58409 1.327491,0 2.256735,0.58409 0.955794,0.55755 1.460241,1.51334 0.530996,0.9558 0.530996,2.12399 0,1.16819 -0.530996,2.15053 -0.504447,0.9558 -1.460241,1.53989 -0.929244,0.55755 -2.256735,0.55755 z m 0,-1.59299 q 0.769945,0 1.354041,-0.34515 0.610646,-0.37169 0.955794,-0.98234 0.345148,-0.61065 0.345148,-1.32749 0,-0.7434 -0.345148,-1.32749 -0.345148,-0.61065 -0.955794,-0.9558 -0.584096,-0.37169 -1.354041,-0.37169 -0.769945,0 -1.380591,0.37169 -0.584096,0.34515 -0.929244,0.9558 -0.345148,0.58409 -0.345148,1.32749 0,0.71684 0.345148,1.32749 0.345148,0.61065 0.929244,0.98234 0.610646,0.34515 1.380591,0.34515 z m 3.531127,-4.46037 -0.743395,-0.87614 q 0.769945,-0.76995 1.592989,-1.1151 0.849595,-0.37169 1.991237,-0.29204 l 0.238949,1.56644 q -0.876144,-0.0797 -1.646089,0.0531 -0.769945,0.13274 -1.433691,0.66374 z m 9.345539,10.46063 q -2.070887,0 -3.185979,-0.92924 -1.115093,-0.9558 -1.115093,-2.41604 0,-0.98234 0.477897,-1.75228 0.477897,-0.7965 1.300941,-1.3275 0.849595,-0.55754 1.964687,-0.84959 1.115093,-0.29205 2.362935,-0.29205 0.451347,0 0.902694,0.0266 0.477897,0 0.982344,0.0531 0.530996,0.0266 1.088543,0.1062 l 0.0531,1.46024 q -0.477897,-0.0797 -0.982343,-0.1062 -0.477897,-0.0531 -0.955794,-0.0797 -0.477897,-0.0266 -0.929244,-0.0266 -0.955794,0 -1.752289,0.1593 -0.796494,0.1593 -1.380591,0.4779 -0.584096,0.3186 -0.902694,0.82304 -0.318598,0.50445 -0.318598,1.22129 0,0.55755 0.185849,0.9558 0.212399,0.3717 0.557547,0.61064 0.345147,0.2124 0.796494,0.3186 0.477897,0.1062 1.035444,0.1062 1.035443,0 1.831938,-0.3186 0.823044,-0.34514 1.380591,-0.98234 0.584096,-0.6372 0.876144,-1.56644 0.292048,-0.92924 0.292048,-2.12399 0,-1.80538 -0.424797,-2.81428 -0.424798,-1.00889 -1.274392,-1.43369 -0.823045,-0.42479 -2.123986,-0.42479 -0.876144,0 -1.725739,0.34514 -0.849594,0.3186 -1.53989,1.0089 l -0.929244,-1.2213 q 0.849595,-0.84959 1.964688,-1.27439 1.115092,-0.42479 2.362934,-0.42479 1.194742,0 2.177086,0.29204 0.982343,0.29205 1.672639,0.98235 0.716846,0.66374 1.088543,1.80539 0.398248,1.14164 0.398248,2.86738 v 6.4516 h -2.070887 v -1.85848 q -0.345148,0.66374 -0.849595,1.08854 -0.477897,0.4248 -1.035443,0.66374 -0.557546,0.2124 -1.141643,0.29205 -0.584096,0.1062 -1.115092,0.1062 z M 39.38221,90.47176 h 1.991237 l -0.07965,3.53113 -0.238949,-0.39825 q 0.159299,-0.82304 0.557547,-1.46024 0.398247,-0.63719 0.955794,-1.06199 0.557546,-0.45135 1.221292,-0.66375 0.663745,-0.23894 1.380591,-0.23894 0.955793,0 1.752288,0.34514 0.823045,0.3186 1.460241,0.98235 l -0.849595,1.48679 -0.106199,0.23895 -0.185849,-0.1062 q -0.0531,-0.2124 -0.159299,-0.39825 -0.106199,-0.18585 -0.451347,-0.45135 -0.424797,-0.2655 -0.796495,-0.34515 -0.345148,-0.1062 -0.796495,-0.1062 -0.663745,0 -1.327491,0.2655 -0.663746,0.23895 -1.221292,0.76995 -0.530996,0.53099 -0.849594,1.35404 -0.318598,0.82304 -0.318598,1.96469 v 6.4516 h -1.938138 z m 12.212921,12.13327 v -1.53989 h 3.584228 V 86.48929 h -3.42493 V 84.9494 h 5.36307 v 16.11574 h 3.55767 v 1.53989 z m 13.832458,0 v -1.53989 h 3.10633 v -9.05349 h -2.94703 v -1.53989 h 4.85862 v 10.59338 h 2.84083 v 1.53989 z m 3.95593,-14.68205 q -0.55755,0 -0.9558,-0.39825 -0.39825,-0.39824 -0.39825,-0.95579 0,-0.5841 0.3717,-0.98234 0.39825,-0.39825 0.98235,-0.39825 0.55754,0 0.95579,0.4248 0.4248,0.39824 0.4248,0.95579 0,0.55755 -0.4248,0.95579 -0.39825,0.39825 -0.95579,0.39825 z m 14.2307,14.9741 q -1.32749,0 -2.44258,-0.47789 -1.11509,-0.4779 -1.93814,-1.3275 -0.79649,-0.84959 -1.24784,-1.99123 -0.45135,-1.1682 -0.45135,-2.54879 0,-1.35404 0.45135,-2.49568 0.45135,-1.16819 1.24784,-2.01779 0.82305,-0.84959 1.93814,-1.32749 1.11509,-0.47789 2.41603,-0.47789 1.48679,0 2.65498,0.61064 1.19475,0.5841 1.93814,1.64609 l -1.19474,1.16819 -0.18585,0.18585 -0.13275,-0.13275 q 0,-0.2124 -0.1062,-0.39824 -0.0797,-0.18585 -0.39824,-0.50445 -0.5841,-0.531 -1.24785,-0.7434 -0.66374,-0.2124 -1.53989,-0.2124 -0.76994,0 -1.46024,0.3186 -0.69029,0.3186 -1.24784,0.92925 -0.531,0.58409 -0.84959,1.43369 -0.3186,0.84959 -0.3186,1.88503 0,1.03545 0.3186,1.91159 0.31859,0.8496 0.87614,1.48679 0.55755,0.6372 1.32749,1.0089 0.7965,0.34514 1.69919,0.34514 0.61065,0 1.16819,-0.1593 0.55755,-0.18584 1.062,-0.50444 0.50444,-0.34515 0.92924,-0.82305 l 1.11509,1.30094 q -0.90269,0.9558 -2.01778,1.4337 -1.08855,0.47789 -2.36294,0.47789 z m 8.65525,-7.75255 v -1.77884 h 7.43395 v 1.77884 z M 104.53549,84.9494 h 1.83193 0.2655 v 0.18585 q -0.1593,0.1593 -0.2124,0.34515 -0.0265,0.18585 -0.0265,0.63719 v 6.50471 q 0.4779,-0.7434 1.1151,-1.27439 0.66374,-0.55755 1.38059,-0.8496 0.74339,-0.31859 1.48679,-0.31859 1.08854,0 1.91158,0.50444 0.8496,0.50445 1.30095,1.61954 0.47789,1.11509 0.47789,2.94703 v 7.3543 h -1.85849 v -7.3012 q 0,-1.27439 -0.29204,-2.01778 -0.29205,-0.76995 -0.7965,-1.08855 -0.50444,-0.34515 -1.14164,-0.34515 -0.4779,0 -0.98234,0.1593 -0.50445,0.1593 -0.98235,0.4779 -0.45134,0.3186 -0.82304,0.7965 -0.3717,0.45134 -0.5841,1.03544 -0.2124,0.58409 -0.2124,1.30094 v 6.9826 h -1.85848 z m 17.20428,17.94768 q -0.71684,0 -1.35404,-0.2124 -0.63719,-0.21239 -1.16819,-0.63719 -0.50445,-0.45135 -0.87615,-1.11509 -0.37169,-0.66375 -0.58409,-1.59299 -0.18585,-0.92925 -0.18585,-2.09744 l 0.0265,-6.77021 h 1.85849 v 6.77021 q 0,1.14164 0.2124,1.93814 0.21239,0.79649 0.58409,1.27439 0.39825,0.4779 0.9027,0.69029 0.50444,0.2124 1.06199,0.2124 0.6372,0 1.22129,-0.23895 0.5841,-0.26549 1.03544,-0.76994 0.4779,-0.50445 0.7434,-1.30094 0.2655,-0.7965 0.2655,-1.88504 v -6.69056 h 1.85849 V 100.72 q 0,0.47789 0.0265,0.95579 0.0531,0.45135 0.23894,0.92924 h -1.83193 q -0.13275,-0.31859 -0.18585,-0.61064 -0.0531,-0.3186 -0.0796,-0.6372 0,-0.3186 0,-0.61064 -0.29205,0.50444 -0.6903,0.90269 -0.39825,0.39825 -0.90269,0.6903 -0.4779,0.26549 -1.03545,0.39824 -0.53099,0.1593 -1.14164,0.1593 z m 14.46966,0 q -0.7434,0 -1.40714,-0.23895 -0.66375,-0.21239 -1.2213,-0.63719 -0.53099,-0.4248 -0.95579,-1.0089 l -0.66374,1.59299 h -1.2213 V 84.9494 h 1.91159 0.2655 v 0.18585 q -0.1593,0.1593 -0.2124,0.34515 -0.0266,0.18585 -0.0266,0.63719 v 6.21266 q 0.29205,-0.4779 0.6903,-0.87614 0.39824,-0.39825 0.87614,-0.6903 0.4779,-0.29205 1.00889,-0.4248 0.531,-0.15929 1.03545,-0.15929 1.11509,0 2.01778,0.39824 0.92925,0.3717 1.59299,1.1682 0.66375,0.76994 1.0089,1.93813 0.37169,1.1682 0.37169,2.73463 0,1.61954 -0.42479,2.84084 -0.4248,1.22129 -1.1682,2.04433 -0.71684,0.7965 -1.61953,1.19474 -0.9027,0.39825 -1.85849,0.39825 z m -0.23895,-1.69919 q 0.6372,0 1.22129,-0.23894 0.61065,-0.23895 1.08854,-0.76995 0.4779,-0.55755 0.7434,-1.46024 0.29205,-0.90269 0.29205,-2.20364 0,-1.19474 -0.23895,-2.07088 -0.23895,-0.9027 -0.6903,-1.48679 -0.42479,-0.5841 -1.03544,-0.8496 -0.61065,-0.29205 -1.32749,-0.29205 -0.98234,0 -1.75229,0.61065 -0.74339,0.5841 -1.16819,1.67264 -0.4248,1.06199 -0.4248,2.46913 0,1.03545 0.18585,1.88504 0.18585,0.8496 0.55755,1.46024 0.39824,0.61065 1.00889,0.9558 0.6372,0.31859 1.53989,0.31859 z"
     id="text1"
     aria-label="garlic-hub"
     style="stroke-width:0.999999" />
</svg>
