<?xml version="1.0" encoding="iso-8859-1"?>
<!-- Uploaded to: SVG Repo, www.svgrepo.com, Generator: SVG Repo Mixer Tools -->
<svg version="1.1" id="Layer_1" xmlns="http://www.w3.org/2000/svg" xmlns:xlink="http://www.w3.org/1999/xlink" 
	 viewBox="0 0 512.016 512.016" xml:space="preserve">
<path style="fill:#DB2B42;" d="M439.556,309.536H72.452c-11.88,0-21.6-9.72-21.6-21.6V21.6c0-11.88,9.72-21.6,21.6-21.6h367.112
	c11.88,0,21.6,9.72,21.6,21.6v266.344C461.156,299.824,451.436,309.536,439.556,309.536z"/>
<path style="fill:#E04F5F;" d="M439.556,309.536H72.452c-11.88,0-21.6-9.72-21.6-21.6V21.6c0-11.88,9.72-21.6,21.6-21.6h367.112
	c11.88,0,21.6,9.72,21.6,21.6v266.344C461.156,299.824,451.436,309.536,439.556,309.536z"/>
<polygon style="fill:#FFFFFF;" points="203.844,74.488 330.676,154.768 203.844,235.032 "/>
<rect x="65.348" y="378.48" width="189.104" height="16"/>
<g>
	<rect x="66.676" y="437.048" style="fill:#CCCCCC;" width="189.112" height="8"/>
	<rect x="66.676" y="470.52" style="fill:#CCCCCC;" width="189.112" height="8"/>
	<rect x="66.676" y="504" style="fill:#CCCCCC;" width="189.112" height="8"/>
</g>
<rect x="304.572" y="378.48" width="140.768" height="52.576"/>
<rect x="304.572" y="459.44" width="140.768" height="52.576"/>
</svg>